<svg id="Layer_1" data-name="Layer 1" xmlns="http://www.w3.org/2000/svg" xmlns:xlink="http://www.w3.org/1999/xlink" viewBox="0 0 2000 2000"><defs><style>.cls-1{fill:url(#linear-gradient);}.cls-2{fill:#fff;}</style><linearGradient id="linear-gradient" x1="30.81" y1="1000" x2="1969.19" y2="1000" gradientUnits="userSpaceOnUse"><stop offset="0" stop-color="#f27ca8"/><stop offset="0.04" stop-color="#f16697"/><stop offset="0.1" stop-color="#f05589"/><stop offset="0.16" stop-color="#ef4a80"/><stop offset="0.25" stop-color="#ef437a"/><stop offset="0.5" stop-color="#ef4179"/><stop offset="0.69" stop-color="#ef447b"/><stop offset="0.8" stop-color="#ef4c81"/><stop offset="0.9" stop-color="#f05a8c"/><stop offset="0.98" stop-color="#f16e9c"/><stop offset="1" stop-color="#f175a1"/></linearGradient></defs><rect class="cls-1" x="30.81" y="30.81" width="1938.38" height="1938.38" rx="41.45"/><path class="cls-2" d="M712.82,1032.88a75.41,75.41,0,0,1-106.74,0c-14.25-14.29-28.45-28.65-42.45-43.19-67.2-69.77-89.46-152.15-60-244.54,29.28-91.79,94.64-147.25,189.22-163.89,78.56-13.83,148.33,9,206.37,64.14,34.38,32.69,67.51,66.71,101.21,100.13,34.88,36.37,70.23,72.26,107,106.73l126.46,127q-52.11,54.75-106.91,106.84L1000.11,959.7q-51.83-55-106.84-106.78c-31.88-32.17-63.53-64.57-95.7-96.44-37.38-37-93-37.66-128.84-2s-35.51,91.41,1.32,128.89q21.19,21.55,42.65,42.84a75.38,75.38,0,0,1,.12,106.67Z"/><path class="cls-2" d="M1127,1086.15q55-51.92,106.91-106.85c34-33.76,69-66.58,101.78-101.54,33.19-35.45,30.15-90.58-4.44-124.16-35.06-34-89.82-34.38-125.51.27-33.27,32.29-65.57,65.58-98.29,98.43-36.77-34.47-72.12-70.36-107-106.73,32.17-31.9,64-64.18,96.57-95.63,69.75-67.29,152.3-89.27,244.49-60C1433.22,619,1488.73,684.36,1505.22,779c13.9,79.83-9.74,150.12-66.22,208.6-32.19,33.33-65.16,65.93-97.77,98.86l-106.76,107q-57.53,57-115.08,113.93c-4.45,4.41-9.1,8.62-13.66,12.92l-105.26-107.23Z"/><path class="cls-2" d="M810.53,1151.18l20.39-20.61a61,61,0,0,1,86.38-.31l84.43,84.12c35.09,35.75,70.18,69.25,105.27,105-32.64,32.94-65.5,65.66-97.76,99-7,7.2-10.53,4.65-16.16-1-42-42.3-84.15-82.12-126.3-124.22q-28-27.94-56-55.85A61,61,0,0,1,810.53,1151.18Z"/><path class="cls-2" d="M696.77,1084.84a68.94,68.94,0,0,1,69.78-68.12c38,.6,68.07,31.81,67.66,70.19a68.84,68.84,0,0,1-69.73,68.1C726.51,1154.47,696.45,1123.32,696.77,1084.84Z"/></svg>