<svg stroke="#ffffff" width="20" height="20" viewBox="0 0 20 20" fill="none" xmlns="http://www.w3.org/2000/svg">
<path fill-rule="evenodd" clip-rule="evenodd" d="M0.183452 10.4423L8.93306 19.1919C9.17714 19.436 9.57286 19.436 9.81694 19.1919C10.061 18.9479 10.061 18.5521 9.81694 18.3081L2.13388 10.625H19.375C19.7202 10.625 20 10.3452 20 10C20 9.65482 19.7202 9.375 19.375 9.375H2.13388L9.81694 1.69194C10.061 1.44786 10.061 1.05214 9.81694 0.808058C9.57286 0.563981 9.17714 0.563981 8.93306 0.808058L0.183452 9.55766M0.047424 9.76076C0.0158077 9.83718 -3.18748e-07 9.91859 0 10C0 9.91526 0.0168659 9.83445 0.047424 9.76076ZM0.183452 10.4423L0.183058 10.4419C0.06102 10.3199 6.26247e-07 10.16 0 10" fill="#FFFFFF"/>
</svg>
