<svg id="Layer_1" data-name="Layer 1" xmlns="http://www.w3.org/2000/svg" viewBox="0 0 512 512"><defs></defs><title>calendar-exclamation-mark-outline</title><path class="cls-1" d="M448,38.4H409.6a38.4,38.4,0,0,0-76.8,0H179.2a38.4,38.4,0,1,0-76.8,0H64a64,64,0,0,0-64,64V428.8A83.2,83.2,0,0,0,83.2,512H428.8A83.2,83.2,0,0,0,512,428.8V102.4A64,64,0,0,0,448,38.4Zm-89.6,0a12.8,12.8,0,0,1,25.6,0V64a12.8,12.8,0,0,1-25.6,0ZM128,38.4a12.8,12.8,0,1,1,25.6,0V64A12.8,12.8,0,1,1,128,64Zm-102.4,64A38.33,38.33,0,0,1,42.54,70.57,38.18,38.18,0,0,1,64,64h38.4a38.4,38.4,0,1,0,76.8,0H332.8a38.4,38.4,0,0,0,76.8,0H448a38.44,38.44,0,0,1,38.2,34.48,38.69,38.69,0,0,1,.2,3.92v51.2H25.6Zm403.2,384H83.2a57.56,57.56,0,0,1-53-35.33A63.61,63.61,0,0,0,64,460.8H448a63.61,63.61,0,0,0,33.8-9.73A57.56,57.56,0,0,1,428.8,486.4Zm57.6-89.6A38.44,38.44,0,0,1,448,435.2H64a38.44,38.44,0,0,1-38.4-38.4V179.2H486.4Z"/><path class="cls-1" d="M256,243.2a64,64,0,1,1-64,64,64.07,64.07,0,0,1,64-64m0-25.6a89.6,89.6,0,1,0,89.6,89.6A89.6,89.6,0,0,0,256,217.6Z"/><path class="cls-1" d="M256,307.2a12.8,12.8,0,0,1-12.8-12.8V281.6a12.8,12.8,0,0,1,25.6,0v12.8A12.8,12.8,0,0,1,256,307.2Z"/><path class="cls-1" d="M256,345.6q-.63,0-1.26-.06c-.41,0-.83-.11-1.24-.19a12.72,12.72,0,0,1-2.4-.73,13.41,13.41,0,0,1-2.21-1.18c-.34-.23-.68-.48-1-.74a14.15,14.15,0,0,1-1.78-1.78c-.26-.33-.51-.67-.74-1a13.41,13.41,0,0,1-1.18-2.21,12.68,12.68,0,0,1-.73-2.4c-.08-.41-.14-.83-.19-1.24s-.06-.84-.06-1.26,0-.84.06-1.26.11-.83.19-1.24a12.68,12.68,0,0,1,.73-2.4,12.94,12.94,0,0,1,1.18-2.2c.23-.35.48-.69.74-1a12.54,12.54,0,0,1,.85-.94,12.38,12.38,0,0,1,.93-.85c.33-.26.67-.51,1-.74a12.87,12.87,0,0,1,4.61-1.91c.41-.08.83-.14,1.24-.19a13.24,13.24,0,0,1,2.52,0c.41,0,.83.11,1.24.19a13.51,13.51,0,0,1,2.4.73,12.87,12.87,0,0,1,2.2,1.18c.35.23.69.48,1,.74a13.29,13.29,0,0,1,1.78,1.79,12.13,12.13,0,0,1,.74,1,12.87,12.87,0,0,1,1.18,2.2,13.52,13.52,0,0,1,.73,2.4c.08.41.14.83.19,1.24s.06.84.06,1.26,0,.84-.06,1.26-.11.83-.19,1.24a13.52,13.52,0,0,1-.73,2.4,13.34,13.34,0,0,1-1.18,2.21c-.23.34-.48.68-.74,1a12.37,12.37,0,0,1-.85.93,12.57,12.57,0,0,1-.93.85c-.33.26-.67.51-1,.74a12.87,12.87,0,0,1-2.2,1.18,12.71,12.71,0,0,1-2.4.73c-.41.08-.83.15-1.24.19S256.42,345.6,256,345.6Z"/></svg>