<svg width="20" height="20" viewBox="0 0 20 20" fill="none" xmlns="http://www.w3.org/2000/svg">
<path fill-rule="evenodd" clip-rule="evenodd" d="M9.46617 0C10.5114 0 11.3594 0.839822 11.3594 1.875V3.27844L12.4969 2.85015C13.4744 2.4812 14.5688 2.96784 14.9399 3.93665L19.8754 16.7874C20.248 17.7554 19.7566 18.8393 18.7788 19.2067L17.5996 19.6507C16.6222 20.0196 15.5277 19.533 15.1568 18.5647L11.3594 8.6756V18.125C11.3594 19.1602 10.5114 20 9.46617 20H6.94186C5.89661 20 5.04862 19.1602 5.04862 18.125V1.875C5.04862 0.839822 5.89661 0 6.94186 0H9.46617ZM9.46617 1.25H6.94186C6.59368 1.25 6.31078 1.53018 6.31078 1.875V18.125C6.31078 18.4698 6.59368 18.75 6.94186 18.75H9.46617C9.81434 18.75 10.0972 18.4698 10.0972 18.125V1.875C10.0972 1.53018 9.81434 1.25 9.46617 1.25ZM13.7101 4.2786L13.76 4.38053L18.6959 17.2322C18.8201 17.5548 18.6564 17.9158 18.3307 18.0381L17.1506 18.4825C16.8247 18.6055 16.4603 18.4434 16.3367 18.1208L11.4015 5.26867C11.2773 4.94604 11.4409 4.58493 11.7661 4.4626L12.9459 4.01837C13.2356 3.90904 13.5557 4.02492 13.7101 4.2786ZM3.59125 18.75H1.89323C1.54506 18.75 1.26216 18.4698 1.26216 18.125V6.25C1.26216 5.90518 1.54506 5.625 1.89323 5.625H3.59125C3.93979 5.625 4.22233 5.34518 4.22233 5C4.22233 4.65482 3.93979 4.375 3.59125 4.375H1.89323C0.847989 4.375 0 5.21482 0 6.25V18.125C0 19.1602 0.847989 20 1.89323 20H3.59125C3.93979 20 4.22233 19.7202 4.22233 19.375C4.22233 19.0298 3.93979 18.75 3.59125 18.75ZM7.57293 3.125V13.125C7.57293 13.4702 7.85548 13.75 8.20401 13.75C8.55255 13.75 8.83509 13.4702 8.83509 13.125V3.125C8.83509 2.77982 8.55255 2.5 8.20401 2.5C7.85548 2.5 7.57293 2.77982 7.57293 3.125ZM8.20401 17.1875C7.6813 17.1875 7.2574 16.7677 7.2574 16.25C7.2574 15.7325 7.68103 15.3128 8.20351 15.3125L8.33244 15.3211C8.79443 15.3832 9.15063 15.7755 9.15063 16.25C9.15063 16.7677 8.72672 17.1875 8.20401 17.1875Z"/>
</svg>
