<svg id="wave" style="transition: 0.3s" viewBox="0 0 1440 490" version="1.1" xmlns="http://www.w3.org/2000/svg"><defs><linearGradient id="sw-gradient-0" x1="0" x2="0" y1="1" y2="0"><stop stop-color="rgba(255, 60, 120, 1)" offset="0%"></stop><stop stop-color="rgba(252, 96, 143, 0.3137254901960784)" offset="100%"></stop></linearGradient></defs><path style="transform:translate(0, 0px); opacity:1" fill="url(#sw-gradient-0)" d="M0,441L240,375.7C480,310,960,180,1440,138.8C1920,98,2400,147,2880,187.8C3360,229,3840,261,4320,277.7C4800,294,5280,294,5760,310.3C6240,327,6720,359,7200,318.5C7680,278,8160,163,8640,122.5C9120,82,9600,114,10080,155.2C10560,196,11040,245,11520,220.5C12000,196,12480,98,12960,65.3C13440,33,13920,65,14400,130.7C14880,196,15360,294,15840,285.8C16320,278,16800,163,17280,98C17760,33,18240,16,18720,73.5C19200,131,19680,261,20160,334.8C20640,408,21120,425,21600,432.8C22080,441,22560,441,23040,441C23520,441,24000,441,24480,392C24960,343,25440,245,25920,236.8C26400,229,26880,310,27360,285.8C27840,261,28320,131,28800,130.7C29280,131,29760,261,30240,334.8C30720,408,31200,425,31680,367.5C32160,310,32640,180,33120,130.7C33600,82,34080,114,34320,130.7L34560,147L34560,490L34320,490C34080,490,33600,490,33120,490C32640,490,32160,490,31680,490C31200,490,30720,490,30240,490C29760,490,29280,490,28800,490C28320,490,27840,490,27360,490C26880,490,26400,490,25920,490C25440,490,24960,490,24480,490C24000,490,23520,490,23040,490C22560,490,22080,490,21600,490C21120,490,20640,490,20160,490C19680,490,19200,490,18720,490C18240,490,17760,490,17280,490C16800,490,16320,490,15840,490C15360,490,14880,490,14400,490C13920,490,13440,490,12960,490C12480,490,12000,490,11520,490C11040,490,10560,490,10080,490C9600,490,9120,490,8640,490C8160,490,7680,490,7200,490C6720,490,6240,490,5760,490C5280,490,4800,490,4320,490C3840,490,3360,490,2880,490C2400,490,1920,490,1440,490C960,490,480,490,240,490L0,490Z"></path></svg>