<svg width="20" height="20" viewBox="0 0 20 20" fill="none" xmlns="http://www.w3.org/2000/svg">
<path fill-rule="evenodd" clip-rule="evenodd" d="M1.07941 10.8359L9.56445 2.11137C9.80549 1.8635 10.1953 1.8635 10.4364 2.11135L13.2997 5.05576C13.2999 5.05596 13.3001 5.05617 13.3002 5.05637L16.4222 8.2668C16.4224 8.26699 16.4226 8.26718 16.4228 8.26736L18.9206 10.8359C19.1675 11.0898 19.5679 11.0898 19.8148 10.8359C20.0617 10.582 20.0617 10.1703 19.8148 9.91633L17.502 7.53797V3.31187C17.502 2.95276 17.2189 2.66164 16.8696 2.66164H13.7471C13.4802 2.66164 13.2519 2.83166 13.1591 3.07211L11.3306 1.19178C10.5957 0.436073 9.40513 0.436073 8.67024 1.19178L0.185224 9.91631C-0.0617241 10.1702 -0.0617438 10.5819 0.18518 10.8359C0.432103 11.0898 0.832465 11.0898 1.07941 10.8359ZM14.3794 4.32695L16.2373 6.2375V3.96211H14.3794V4.32695ZM12.5059 18.0745V13.5871C12.5059 12.519 11.6632 11.6525 10.6245 11.6525H9.37549C8.33681 11.6525 7.49415 12.519 7.49415 13.5871V18.0745H3.76269V11.6605C3.76269 11.3014 3.47959 11.0103 3.13037 11.0103C2.78115 11.0103 2.49805 11.3014 2.49805 11.6605V18.7248C2.49805 19.0839 2.78115 19.375 3.13037 19.375H8.12646C8.47568 19.375 8.75878 19.0839 8.75878 18.7248V13.5871C8.75878 13.2373 9.03525 12.953 9.37549 12.953H10.6245C10.9648 12.953 11.2412 13.2373 11.2412 13.5871V18.7248C11.2412 19.0839 11.5243 19.375 11.8735 19.375H16.8696C17.2189 19.375 17.502 19.0839 17.502 18.7248V11.6605C17.502 11.3014 17.2189 11.0103 16.8696 11.0103C16.5204 11.0103 16.2373 11.3014 16.2373 11.6605V18.0745H12.5059Z"/>
</svg>
