<svg xmlns="http://www.w3.org/2000/svg" width="57.045" height="70.686" viewBox="0 0 57.045 70.686">
  <path id="Notification-Icon-SVG-03cde" d="M20.978,62.685H34.989a7,7,0,0,1-.525,2.726,7.122,7.122,0,0,1-5.044,4.137,6.256,6.256,0,0,1-1.4.136A7.054,7.054,0,0,1,20.978,62.685ZM2.48,59.733A2.477,2.477,0,0,1,.725,55.5l4.26-4.261a6.891,6.891,0,0,0,2.02-4.869V31.711c0-10.794,5.711-21.69,15.759-24.079V5.255A5.25,5.25,0,0,1,28.359.01a5.373,5.373,0,0,1,4.914,5.42v2.2c10.017,2.39,15.766,13.325,15.766,24.079V46.375a6.884,6.884,0,0,0,2.013,4.869L55.319,55.5a2.477,2.477,0,0,1-1.754,4.228Z" transform="translate(0.5 0.502)" stroke="rgba(0,0,0,0)" stroke-miterlimit="10" stroke-width="1" fill="#ffffff"/>
</svg>
