<svg width="16" height="16" viewBox="0 0 16 16" fill="none" xmlns="http://www.w3.org/2000/svg">
<path fill-rule="evenodd" clip-rule="evenodd" d="M2.112 1C2.44021 1 2.71072 1.25079 2.74769 1.57389L2.752 1.64965V7.0772C3.60535 7.35252 4.224 8.16362 4.224 9.12077C4.224 10.0779 3.60535 10.889 2.752 11.1643V14.3502C2.752 14.709 2.46546 14.9999 2.112 14.9999C1.78378 14.9999 1.51327 14.7491 1.4763 14.426L1.472 14.3502V11.1643C0.618643 10.889 0 10.0779 0 9.12077C0 8.16362 0.618643 7.35253 1.472 7.0772V1.64965C1.472 1.29086 1.75854 1 2.112 1ZM2.12342 9.96515L2.112 9.96505L2.1006 9.96515C1.64677 9.95893 1.28003 9.58281 1.28003 9.12068C1.28003 8.65468 1.65294 8.27613 2.11203 8.27613C2.57111 8.27613 2.94403 8.65468 2.94403 9.12068C2.94403 9.58282 2.57726 9.95895 2.12342 9.96515ZM8.63999 4.08874V1.64965L8.63568 1.57389C8.59871 1.25079 8.3282 1 7.99999 1C7.64652 1 7.35999 1.29086 7.35999 1.64965V4.08875C6.50663 4.36407 5.88799 5.17517 5.88799 6.13231C5.88799 7.08945 6.50663 7.90055 7.35999 8.17587V14.3505L7.36429 14.4262C7.40126 14.7493 7.67177 15.0001 7.99999 15.0001C8.35345 15.0001 8.63999 14.7093 8.63999 14.3505V8.17588C9.49335 7.90055 10.112 7.08946 10.112 6.13231C10.112 5.17516 9.49335 4.36407 8.63999 4.08874ZM7.99548 5.28769L7.99999 5.2877L8.00453 5.28769C8.46154 5.29016 8.83202 5.66774 8.83202 6.13222C8.83202 6.59823 8.4591 6.97677 8.00002 6.97677C7.54093 6.97677 7.16802 6.59823 7.16802 6.13222C7.16802 5.66775 7.53848 5.29017 7.99548 5.28769ZM14.528 1.64965V7.0772C15.3813 7.35252 16 8.16362 16 9.12077C16 10.0779 15.3813 10.889 14.528 11.1643V14.3502C14.528 14.709 14.2414 14.9999 13.888 14.9999C13.5598 14.9999 13.2893 14.7491 13.2523 14.426L13.248 14.3502V11.1643C12.3946 10.889 11.776 10.0779 11.776 9.12077C11.776 8.16362 12.3946 7.35253 13.248 7.0772V1.64965C13.248 1.29086 13.5345 1 13.888 1C14.2162 1 14.4867 1.25079 14.5237 1.57389L14.528 1.64965ZM13.8994 9.96515C13.8956 9.96508 13.8918 9.96505 13.888 9.96505C13.8842 9.96505 13.8804 9.96508 13.8766 9.96515C13.4227 9.95893 13.056 9.58281 13.056 9.12068C13.056 8.65468 13.4289 8.27613 13.888 8.27613C14.3471 8.27613 14.72 8.65468 14.72 9.12068C14.72 9.58282 14.3532 9.95895 13.8994 9.96515Z"/>
</svg>
